<?xml version="1.0" encoding="utf-8"?>
<!-- Generator: Adobe Illustrator 16.0.0, SVG Export Plug-In . SVG Version: 6.00 Build 0)  -->
<!DOCTYPE svg PUBLIC "-//W3C//DTD SVG 1.1//EN" "http://www.w3.org/Graphics/SVG/1.1/DTD/svg11.dtd">
<svg version="1.1" id="Layer_1" xmlns="http://www.w3.org/2000/svg" xmlns:xlink="http://www.w3.org/1999/xlink" x="0px" y="0px"
	 width="216.25px" height="242.5px" viewBox="0 0 216.25 242.5" enable-background="new 0 0 216.25 242.5" xml:space="preserve">
<g>
	<path d="M12.5,117.5c0,0,1.403,0.682,3.971,2.084c2.559,1.416,6.32,3.493,10.957,6.394c4.644,2.887,10.232,6.498,16.39,11.022
		c6.176,4.495,12.987,9.828,19.953,16.234c6.97,6.39,14.208,13.778,20.756,22.638c3.275,4.423,6.396,9.196,9.139,14.389
		c2.74,5.191,5.033,10.843,6.569,16.896c0.765,3.023,1.364,6.146,1.642,9.344c0.136,1.598,0.25,3.209,0.248,4.833l0.015,1.218
		l-0.003,1.072c0.001,0.694,0.013,1.395,0.041,2.062c0.028,0.664,0.074,1.313,0.144,1.85c0.033,0.266,0.077,0.502,0.109,0.625
		c0.014,0.048,0.028,0.089,0.01,0.021c-0.023-0.044-0.046-0.204-0.327-0.629c-0.058-0.082-0.167-0.233-0.306-0.388
		c-0.108-0.117-0.325-0.337-0.552-0.503c-0.206-0.156-0.585-0.398-0.914-0.521c-0.387-0.17-0.814-0.264-1.222-0.31
		c-0.886-0.073-1.5,0.095-1.952,0.274c-0.204,0.082-0.34,0.148-0.501,0.245c-0.107,0.06-0.201,0.12-0.295,0.191
		c-0.515,0.41-0.363,0.347-0.314,0.232c0.176-0.264,0.482-0.812,0.755-1.379c1.147-2.351,2.225-5.189,3.252-7.976
		c2.061-5.635,3.964-11.484,5.924-17.335c1.926-5.881,3.86-11.786,5.794-17.69c3.909-11.815,7.824-23.651,11.897-35.238
		c2.014-5.801,4.074-11.538,6.159-17.19c2.078-5.655,4.166-11.23,6.307-16.684c4.23-10.927,8.641-21.376,13.04-31.197
		c2.21-4.906,4.385-9.669,6.634-14.212c2.247-4.544,4.495-8.9,6.733-13.041c4.449-8.296,8.974-15.68,13.364-21.973
		c4.358-6.314,8.689-11.468,12.597-15.368c3.888-3.927,7.449-6.471,9.972-7.976c1.263-0.757,2.281-1.242,2.968-1.559
		C202.137,7.642,202.5,7.5,202.5,7.5s-0.342,0.189-0.979,0.59c-0.638,0.399-1.565,1.022-2.718,1.9
		c-2.314,1.748-5.412,4.673-8.825,8.833c-3.416,4.161-7.068,9.604-10.849,16.085c-3.76,6.498-7.569,14.083-11.461,22.482
		c-1.932,4.208-3.862,8.632-5.782,13.246c-1.92,4.614-3.906,9.384-5.842,14.336c-3.894,9.894-7.712,20.449-11.606,31.393
		c-1.905,5.489-3.842,11.07-5.802,16.72c-1.909,5.672-3.841,11.413-5.788,17.2c-3.815,11.62-7.692,23.425-11.568,35.229
		c-3.942,11.818-7.715,23.643-12.133,35.307c-1.14,2.939-2.245,5.809-3.797,8.896c-0.413,0.787-0.833,1.573-1.523,2.552
		c-0.389,0.501-0.709,1.041-1.826,1.913c-0.172,0.123-0.344,0.237-0.53,0.349c-0.247,0.139-0.465,0.252-0.756,0.37
		c-0.628,0.241-1.43,0.466-2.505,0.364c-0.503-0.042-1.018-0.181-1.496-0.372c-0.409-0.171-0.88-0.446-1.156-0.666
		c-0.3-0.227-0.593-0.504-0.758-0.695c-0.203-0.224-0.374-0.447-0.48-0.61c-0.492-0.738-0.668-1.247-0.811-1.648
		c-0.144-0.423-0.221-0.749-0.292-1.067c-0.13-0.613-0.195-1.123-0.246-1.604c-0.098-0.961-0.13-1.814-0.147-2.649
		c-0.014-0.833-0.008-1.631,0.009-2.434l0.031-1.17l0.01-1.021c0.038-1.358-0.029-2.719-0.11-4.073
		c-0.179-2.709-0.585-5.402-1.166-8.051c-0.583-2.649-1.331-5.258-2.235-7.804c-0.919-2.542-1.959-5.028-3.08-7.462
		c-2.278-4.854-4.968-9.439-7.857-13.751c-2.895-4.312-6.007-8.336-9.149-12.14c-3.124-3.821-6.345-7.369-9.523-10.701
		c-3.18-3.333-6.37-6.401-9.43-9.302c-3.058-2.904-6.042-5.578-8.891-8.046c-5.714-4.916-10.836-9.069-15.14-12.384
		c-4.314-3.301-7.745-5.86-10.127-7.544C13.79,118.377,12.5,117.5,12.5,117.5z"/>
</g>
</svg>
