<?xml version="1.0" encoding="utf-8"?>
<!-- Generator: Adobe Illustrator 16.0.0, SVG Export Plug-In . SVG Version: 6.00 Build 0)  -->
<!DOCTYPE svg PUBLIC "-//W3C//DTD SVG 1.1//EN" "http://www.w3.org/Graphics/SVG/1.1/DTD/svg11.dtd">
<svg version="1.1" xmlns="http://www.w3.org/2000/svg" xmlns:xlink="http://www.w3.org/1999/xlink" x="0px" y="0px"
	 width="216.25px" height="242.5px" viewBox="0 0 216.25 242.5" enable-background="new 0 0 216.25 242.5" xml:space="preserve">
<g id="Layer_1" display="none">
	<g display="inline">
		<path d="M12.5,117.5c0,0,1.403,0.682,3.971,2.084c2.559,1.416,6.32,3.493,10.957,6.394c4.644,2.887,10.232,6.498,16.39,11.022
			c6.176,4.495,12.987,9.828,19.953,16.234c6.97,6.39,14.208,13.778,20.756,22.638c3.275,4.423,6.396,9.196,9.139,14.389
			c2.74,5.191,5.033,10.843,6.569,16.896c0.765,3.023,1.364,6.146,1.642,9.344c0.136,1.598,0.25,3.209,0.248,4.833l0.015,1.218
			l-0.003,1.072c0.001,0.694,0.013,1.395,0.041,2.062c0.028,0.664,0.074,1.313,0.144,1.85c0.033,0.266,0.077,0.502,0.109,0.625
			c0.014,0.048,0.028,0.089,0.01,0.021c-0.023-0.044-0.046-0.204-0.327-0.629c-0.058-0.082-0.167-0.233-0.306-0.388
			c-0.108-0.117-0.325-0.337-0.552-0.503c-0.206-0.156-0.585-0.398-0.914-0.521c-0.387-0.17-0.814-0.264-1.222-0.31
			c-0.886-0.073-1.5,0.095-1.952,0.274c-0.204,0.082-0.34,0.148-0.501,0.245c-0.107,0.06-0.201,0.12-0.295,0.191
			c-0.515,0.41-0.363,0.347-0.314,0.232c0.176-0.264,0.482-0.812,0.755-1.379c1.147-2.351,2.225-5.189,3.252-7.976
			c2.061-5.635,3.964-11.484,5.924-17.335c1.926-5.881,3.86-11.786,5.794-17.69c3.909-11.815,7.824-23.651,11.897-35.238
			c2.014-5.801,4.074-11.538,6.159-17.19c2.078-5.655,4.166-11.23,6.307-16.684c4.23-10.927,8.641-21.376,13.04-31.197
			c2.21-4.906,4.385-9.669,6.634-14.212c2.247-4.544,4.495-8.9,6.733-13.041c4.449-8.296,8.974-15.68,13.364-21.973
			c4.358-6.314,8.689-11.468,12.597-15.368c3.888-3.927,7.449-6.471,9.972-7.976c1.263-0.757,2.281-1.242,2.968-1.559
			C202.137,7.642,202.5,7.5,202.5,7.5s-0.342,0.189-0.979,0.59c-0.638,0.399-1.565,1.022-2.718,1.9
			c-2.314,1.748-5.412,4.673-8.825,8.833c-3.416,4.161-7.068,9.604-10.849,16.085c-3.76,6.498-7.569,14.083-11.461,22.482
			c-1.932,4.208-3.862,8.632-5.782,13.246c-1.92,4.614-3.906,9.384-5.842,14.336c-3.894,9.894-7.712,20.449-11.606,31.393
			c-1.905,5.489-3.842,11.07-5.802,16.72c-1.909,5.672-3.841,11.413-5.788,17.2c-3.815,11.62-7.692,23.425-11.568,35.229
			c-3.942,11.818-7.715,23.643-12.133,35.307c-1.14,2.939-2.245,5.809-3.797,8.896c-0.413,0.787-0.833,1.573-1.523,2.552
			c-0.389,0.501-0.709,1.041-1.826,1.913c-0.172,0.123-0.344,0.237-0.53,0.349c-0.247,0.139-0.465,0.252-0.756,0.37
			c-0.628,0.241-1.43,0.466-2.505,0.364c-0.503-0.042-1.018-0.181-1.496-0.372c-0.409-0.171-0.88-0.446-1.156-0.666
			c-0.3-0.227-0.593-0.504-0.758-0.695c-0.203-0.224-0.374-0.447-0.48-0.61c-0.492-0.738-0.668-1.247-0.811-1.648
			c-0.144-0.423-0.221-0.749-0.292-1.067c-0.13-0.613-0.195-1.123-0.246-1.604c-0.098-0.961-0.13-1.814-0.147-2.649
			c-0.014-0.833-0.008-1.631,0.009-2.434l0.031-1.17l0.01-1.021c0.038-1.358-0.029-2.719-0.11-4.073
			c-0.179-2.709-0.585-5.402-1.166-8.051c-0.583-2.649-1.331-5.258-2.235-7.804c-0.919-2.542-1.959-5.028-3.08-7.462
			c-2.278-4.854-4.968-9.439-7.857-13.751c-2.895-4.312-6.007-8.336-9.149-12.14c-3.124-3.821-6.345-7.369-9.523-10.701
			c-3.18-3.333-6.37-6.401-9.43-9.302c-3.058-2.904-6.042-5.578-8.891-8.046c-5.714-4.916-10.836-9.069-15.14-12.384
			c-4.314-3.301-7.745-5.86-10.127-7.544C13.79,118.377,12.5,117.5,12.5,117.5z"/>
	</g>
</g>
<g id="Layer_2">
	<g>
		<path fill="#A71E22" d="M38.75,47.5c0,0,0.778,0.335,2.21,1.014c1.424,0.691,3.542,1.666,6.162,3.032
			c2.628,1.354,5.822,3,9.42,5.002c3.603,1.993,7.629,4.31,11.973,6.923c8.679,5.234,18.605,11.687,28.881,19.14
			c2.575,1.856,5.16,3.788,7.756,5.774c2.602,1.979,5.217,4.008,7.805,6.117c5.21,4.175,10.372,8.589,15.425,13.14
			c5.018,4.589,9.944,9.296,14.578,14.16c2.337,2.411,4.586,4.876,6.766,7.352c1.079,1.249,2.151,2.489,3.216,3.722
			c1.045,1.252,2.072,2.502,3.074,3.758c4.017,5.016,7.646,10.089,10.799,15.101c3.147,5.015,5.805,9.976,7.893,14.729
			c2.085,4.755,3.595,9.298,4.548,13.412c0.972,4.112,1.338,7.785,1.476,10.784c0.079,3.013-0.142,5.358-0.344,6.937
			C180.134,199.163,180,200,180,200s-0.065-0.841-0.189-2.418c-0.117-1.567-0.483-3.846-1.055-6.675
			c-0.664-2.822-1.686-6.171-3.187-9.867c-1.502-3.695-3.507-7.728-6.022-11.937c-5.011-8.435-12.034-17.561-20.295-26.733
			c-2.08-2.282-4.208-4.593-6.412-6.889c-2.222-2.282-4.479-4.584-6.792-6.874c-4.647-4.556-9.448-9.122-14.379-13.559
			c-4.893-4.48-9.923-8.824-14.892-13.089c-2.504-2.113-4.988-4.209-7.443-6.281c-2.479-2.049-4.927-4.073-7.335-6.063
			c-9.679-7.92-18.857-15.182-26.759-21.396C49.346,55.787,38.75,47.5,38.75,47.5z"/>
	</g>
	<g>
		<path fill="#A71E22" d="M186.25,47.5c0,0-2.924,1.803-7.815,5.197c-0.612,0.421-1.258,0.865-1.934,1.33
			c-0.665,0.484-1.359,0.991-2.084,1.52c-1.442,1.065-3.035,2.152-4.666,3.426c-3.325,2.445-6.972,5.338-10.938,8.476
			c-1.947,1.613-3.977,3.294-6.076,5.033c-2.085,1.751-4.183,3.635-6.366,5.526c-2.203,1.868-4.357,3.916-6.582,5.974
			c-1.114,1.026-2.241,2.062-3.378,3.109c-1.134,1.049-2.22,2.175-3.346,3.272c-1.12,1.104-2.25,2.216-3.388,3.337
			c-1.14,1.117-2.318,2.21-3.408,3.408c-2.219,2.355-4.47,4.731-6.764,7.099c-2.271,2.39-4.38,4.966-6.634,7.425
			c-1.111,1.244-2.224,2.49-3.338,3.738l-3.168,3.896c-2.115,2.596-4.308,5.13-6.363,7.758c-1.986,2.68-4.02,5.309-6.015,7.937
			c-0.984,1.323-2.032,2.593-2.954,3.944c-0.934,1.342-1.864,2.677-2.788,4.004c-1.851,2.654-3.669,5.284-5.503,7.846
			c-3.556,5.293-7.037,10.415-10.379,15.227c-3.349,4.813-6.561,9.334-9.568,13.481c-3.014,4.144-5.818,7.915-8.35,11.228
			c-2.525,3.318-4.807,6.158-6.708,8.484c-0.948,1.165-1.811,2.194-2.609,3.064c-0.41,0.442-0.744,0.826-1.198,1.211
			c-0.04,0.029-0.05,0.043-0.12,0.087l-0.089,0.051c-0.034,0.026-0.223,0.073-0.323,0.042c-0.057-0.007-0.19-0.076-0.255-0.174
			c-0.079-0.118-0.079-0.182-0.078-0.189c-0.006-0.055-0.005-0.12,0.001-0.167l0.039-0.14c0.055-0.144,0.112-0.249,0.168-0.354
			c0.113-0.208,0.225-0.391,0.333-0.564c0.428-0.689,0.792-1.188,1.029-1.529C44.875,200.174,45,200,45,200
			s-0.332,0.798-0.878,2.292c-0.066,0.187-0.135,0.385-0.194,0.588c-0.029,0.1-0.057,0.207-0.068,0.288l0.001,0.032
			c0.006-0.018,0.008-0.053,0.002-0.078c-0.002,0.009,0.003-0.042-0.063-0.15c-0.055-0.088-0.181-0.138-0.224-0.145
			c-0.072-0.039-0.228,0.008-0.237,0.02h-0.014c-0.018,0.013,0.012-0.021,0.019-0.031c0.236-0.313,0.527-0.805,0.808-1.29
			c0.563-1.008,1.21-2.167,1.934-3.465c1.417-2.626,3.138-5.814,5.112-9.472c1.996-3.644,4.248-7.755,6.705-12.24
			c2.481-4.47,5.19-9.299,8.088-14.386c2.912-5.083,5.975-10.43,9.241-15.932c1.699-2.757,3.473-5.535,5.258-8.354
			c0.894-1.41,1.793-2.828,2.697-4.254c0.915-1.419,1.958-2.758,2.938-4.15c1.997-2.759,3.988-5.559,6.042-8.328
			c2.103-2.732,4.336-5.379,6.51-8.073l3.312-3.998c1.163-1.28,2.324-2.56,3.483-3.836c1.167-1.27,2.332-2.536,3.492-3.799
			c1.182-1.243,2.291-2.548,3.531-3.72c2.417-2.401,4.842-4.758,7.241-7.077c2.393-2.326,4.926-4.448,7.35-6.598
			c1.227-1.059,2.412-2.145,3.643-3.154c1.244-0.994,2.476-1.978,3.695-2.952c2.456-1.924,4.792-3.881,7.239-5.572
			c2.424-1.717,4.72-3.461,7.045-5.007c2.335-1.525,4.593-2.998,6.759-4.413c2.212-1.345,4.343-2.611,6.373-3.803
			c2.021-1.203,4.017-2.226,5.858-3.225c1.841-1.002,3.604-1.873,5.245-2.65c0.817-0.393,1.601-0.769,2.35-1.129
			c0.76-0.339,1.484-0.663,2.172-0.971c2.728-1.262,4.957-2.071,6.453-2.658C185.433,47.751,186.25,47.5,186.25,47.5z"/>
	</g>
</g>
<g id="Layer_3">
</g>
</svg>
